<svg xmlns="http://www.w3.org/2000/svg" xmlns:xlink="http://www.w3.org/1999/xlink" width="500" zoomAndPan="magnify" viewBox="0 0 375 374.999991" height="500" preserveAspectRatio="xMidYMid meet" version="1.0"><defs><clipPath id="6f76535891"><path d="M 137 163 L 150 163 L 150 183 L 137 183 Z M 137 163 " clip-rule="nonzero"/></clipPath><clipPath id="ee3028c190"><path d="M 132.164062 146.980469 L 230.332031 134.1875 L 242.542969 227.898438 L 144.371094 240.6875 Z M 132.164062 146.980469 " clip-rule="nonzero"/></clipPath><clipPath id="c71f0e13ea"><path d="M 132.164062 146.980469 L 257.851562 130.601562 L 270.15625 225.054688 L 144.46875 241.429688 Z M 132.164062 146.980469 " clip-rule="nonzero"/></clipPath><clipPath id="2fa04586ab"><path d="M 140 168 L 240 168 L 240 236 L 140 236 Z M 140 168 " clip-rule="nonzero"/></clipPath><clipPath id="069cfd12ca"><path d="M 132.164062 146.980469 L 230.332031 134.1875 L 242.542969 227.898438 L 144.371094 240.6875 Z M 132.164062 146.980469 " clip-rule="nonzero"/></clipPath><clipPath id="2385dc0e6a"><path d="M 132.164062 146.980469 L 257.851562 130.601562 L 270.15625 225.054688 L 144.46875 241.429688 Z M 132.164062 146.980469 " clip-rule="nonzero"/></clipPath><clipPath id="a68544aebb"><path d="M 138 161 L 234 161 L 234 184 L 138 184 Z M 138 161 " clip-rule="nonzero"/></clipPath><clipPath id="c85b85876e"><path d="M 132.164062 146.980469 L 230.332031 134.1875 L 242.542969 227.898438 L 144.371094 240.6875 Z M 132.164062 146.980469 " clip-rule="nonzero"/></clipPath><clipPath id="66be5335cf"><path d="M 132.164062 146.980469 L 257.851562 130.601562 L 270.15625 225.054688 L 144.46875 241.429688 Z M 132.164062 146.980469 " clip-rule="nonzero"/></clipPath><clipPath id="a962ce2949"><path d="M 149 171 L 163 171 L 163 182 L 149 182 Z M 149 171 " clip-rule="nonzero"/></clipPath><clipPath id="4315515279"><path d="M 132.164062 146.980469 L 230.332031 134.1875 L 242.542969 227.898438 L 144.371094 240.6875 Z M 132.164062 146.980469 " clip-rule="nonzero"/></clipPath><clipPath id="32c4312142"><path d="M 132.164062 146.980469 L 257.851562 130.601562 L 270.15625 225.054688 L 144.46875 241.429688 Z M 132.164062 146.980469 " clip-rule="nonzero"/></clipPath><clipPath id="30627625cf"><path d="M 172 168 L 186 168 L 186 179 L 172 179 Z M 172 168 " clip-rule="nonzero"/></clipPath><clipPath id="23ccf6eb14"><path d="M 132.164062 146.980469 L 230.332031 134.1875 L 242.542969 227.898438 L 144.371094 240.6875 Z M 132.164062 146.980469 " clip-rule="nonzero"/></clipPath><clipPath id="add7d659f9"><path d="M 132.164062 146.980469 L 257.851562 130.601562 L 270.15625 225.054688 L 144.46875 241.429688 Z M 132.164062 146.980469 " clip-rule="nonzero"/></clipPath><clipPath id="0db1805eea"><path d="M 195 165 L 208 165 L 208 176 L 195 176 Z M 195 165 " clip-rule="nonzero"/></clipPath><clipPath id="7fa2339f6b"><path d="M 132.164062 146.980469 L 230.332031 134.1875 L 242.542969 227.898438 L 144.371094 240.6875 Z M 132.164062 146.980469 " clip-rule="nonzero"/></clipPath><clipPath id="45b3748207"><path d="M 132.164062 146.980469 L 257.851562 130.601562 L 270.15625 225.054688 L 144.46875 241.429688 Z M 132.164062 146.980469 " clip-rule="nonzero"/></clipPath><clipPath id="b5302bd6f3"><path d="M 218 162 L 231 162 L 231 173 L 218 173 Z M 218 162 " clip-rule="nonzero"/></clipPath><clipPath id="f85f0eb58b"><path d="M 132.164062 146.980469 L 230.332031 134.1875 L 242.542969 227.898438 L 144.371094 240.6875 Z M 132.164062 146.980469 " clip-rule="nonzero"/></clipPath><clipPath id="9b26c3238d"><path d="M 132.164062 146.980469 L 257.851562 130.601562 L 270.15625 225.054688 L 144.46875 241.429688 Z M 132.164062 146.980469 " clip-rule="nonzero"/></clipPath><clipPath id="c26929b836"><path d="M 136 141 L 230 141 L 230 175 L 136 175 Z M 136 141 " clip-rule="nonzero"/></clipPath><clipPath id="6f6bcbe2bd"><path d="M 132.164062 146.980469 L 230.332031 134.1875 L 242.542969 227.898438 L 144.371094 240.6875 Z M 132.164062 146.980469 " clip-rule="nonzero"/></clipPath><clipPath id="daccf1fda9"><path d="M 132.164062 146.980469 L 257.851562 130.601562 L 270.15625 225.054688 L 144.46875 241.429688 Z M 132.164062 146.980469 " clip-rule="nonzero"/></clipPath><clipPath id="88e6922abb"><path d="M 213 143 L 229 143 L 229 153 L 213 153 Z M 213 143 " clip-rule="nonzero"/></clipPath><clipPath id="7aff3a70fa"><path d="M 132.164062 146.980469 L 230.332031 134.1875 L 242.542969 227.898438 L 144.371094 240.6875 Z M 132.164062 146.980469 " clip-rule="nonzero"/></clipPath><clipPath id="1cb9664c6c"><path d="M 132.164062 146.980469 L 257.851562 130.601562 L 270.15625 225.054688 L 144.46875 241.429688 Z M 132.164062 146.980469 " clip-rule="nonzero"/></clipPath><clipPath id="1b1f461133"><path d="M 190 148 L 207 148 L 207 159 L 190 159 Z M 190 148 " clip-rule="nonzero"/></clipPath><clipPath id="9b4e96d42e"><path d="M 132.164062 146.980469 L 230.332031 134.1875 L 242.542969 227.898438 L 144.371094 240.6875 Z M 132.164062 146.980469 " clip-rule="nonzero"/></clipPath><clipPath id="5fe5bc6516"><path d="M 132.164062 146.980469 L 257.851562 130.601562 L 270.15625 225.054688 L 144.46875 241.429688 Z M 132.164062 146.980469 " clip-rule="nonzero"/></clipPath><clipPath id="55fab509da"><path d="M 168 154 L 184 154 L 184 165 L 168 165 Z M 168 154 " clip-rule="nonzero"/></clipPath><clipPath id="2beb221fdd"><path d="M 132.164062 146.980469 L 230.332031 134.1875 L 242.542969 227.898438 L 144.371094 240.6875 Z M 132.164062 146.980469 " clip-rule="nonzero"/></clipPath><clipPath id="34fabe65be"><path d="M 132.164062 146.980469 L 257.851562 130.601562 L 270.15625 225.054688 L 144.46875 241.429688 Z M 132.164062 146.980469 " clip-rule="nonzero"/></clipPath><clipPath id="56435a0322"><path d="M 146 160 L 162 160 L 162 170 L 146 170 Z M 146 160 " clip-rule="nonzero"/></clipPath><clipPath id="9edcf54dce"><path d="M 132.164062 146.980469 L 230.332031 134.1875 L 242.542969 227.898438 L 144.371094 240.6875 Z M 132.164062 146.980469 " clip-rule="nonzero"/></clipPath><clipPath id="ec33b320d1"><path d="M 132.164062 146.980469 L 257.851562 130.601562 L 270.15625 225.054688 L 144.46875 241.429688 Z M 132.164062 146.980469 " clip-rule="nonzero"/></clipPath><clipPath id="28f63e5ce8"><path d="M 140 165 L 145 165 L 145 170 L 140 170 Z M 140 165 " clip-rule="nonzero"/></clipPath><clipPath id="6ad87dbe77"><path d="M 132.164062 146.980469 L 230.332031 134.1875 L 242.542969 227.898438 L 144.371094 240.6875 Z M 132.164062 146.980469 " clip-rule="nonzero"/></clipPath><clipPath id="183fc9a6d4"><path d="M 132.164062 146.980469 L 257.851562 130.601562 L 270.15625 225.054688 L 144.46875 241.429688 Z M 132.164062 146.980469 " clip-rule="nonzero"/></clipPath><clipPath id="1a1f836eec"><path d="M 136 160 L 150 160 L 150 175 L 136 175 Z M 136 160 " clip-rule="nonzero"/></clipPath><clipPath id="8a92618523"><path d="M 132.164062 146.980469 L 230.332031 134.1875 L 242.542969 227.898438 L 144.371094 240.6875 Z M 132.164062 146.980469 " clip-rule="nonzero"/></clipPath><clipPath id="bdee752706"><path d="M 132.164062 146.980469 L 257.851562 130.601562 L 270.15625 225.054688 L 144.46875 241.429688 Z M 132.164062 146.980469 " clip-rule="nonzero"/></clipPath><clipPath id="3482ebceef"><path d="M 139 170 L 234 170 L 234 185 L 139 185 Z M 139 170 " clip-rule="nonzero"/></clipPath><clipPath id="101168c198"><path d="M 132.164062 146.980469 L 230.332031 134.1875 L 242.542969 227.898438 L 144.371094 240.6875 Z M 132.164062 146.980469 " clip-rule="nonzero"/></clipPath><clipPath id="6ae211578c"><path d="M 132.164062 146.980469 L 257.851562 130.601562 L 270.15625 225.054688 L 144.46875 241.429688 Z M 132.164062 146.980469 " clip-rule="nonzero"/></clipPath><clipPath id="bf2397962b"><path d="M 144 203 L 239 203 L 239 224 L 144 224 Z M 144 203 " clip-rule="nonzero"/></clipPath><clipPath id="f1729aa68d"><path d="M 132.164062 146.980469 L 230.332031 134.1875 L 242.542969 227.898438 L 144.371094 240.6875 Z M 132.164062 146.980469 " clip-rule="nonzero"/></clipPath><clipPath id="4a2ca4cfb1"><path d="M 132.164062 146.980469 L 257.851562 130.601562 L 270.15625 225.054688 L 144.46875 241.429688 Z M 132.164062 146.980469 " clip-rule="nonzero"/></clipPath><clipPath id="1231adcd4f"><path d="M 169 211 L 180 211 L 180 234 L 169 234 Z M 169 211 " clip-rule="nonzero"/></clipPath><clipPath id="7d1a61909d"><path d="M 132.164062 146.980469 L 230.332031 134.1875 L 242.542969 227.898438 L 144.371094 240.6875 Z M 132.164062 146.980469 " clip-rule="nonzero"/></clipPath><clipPath id="4fc41b3885"><path d="M 132.164062 146.980469 L 257.851562 130.601562 L 270.15625 225.054688 L 144.46875 241.429688 Z M 132.164062 146.980469 " clip-rule="nonzero"/></clipPath><clipPath id="03339c37ed"><path d="M 204 206 L 215 206 L 215 229 L 204 229 Z M 204 206 " clip-rule="nonzero"/></clipPath><clipPath id="c937f3695f"><path d="M 132.164062 146.980469 L 230.332031 134.1875 L 242.542969 227.898438 L 144.371094 240.6875 Z M 132.164062 146.980469 " clip-rule="nonzero"/></clipPath><clipPath id="ed36993d2e"><path d="M 132.164062 146.980469 L 257.851562 130.601562 L 270.15625 225.054688 L 144.46875 241.429688 Z M 132.164062 146.980469 " clip-rule="nonzero"/></clipPath><clipPath id="8a50928fc4"><path d="M 142 190 L 237 190 L 237 211 L 142 211 Z M 142 190 " clip-rule="nonzero"/></clipPath><clipPath id="bda71bcc22"><path d="M 132.164062 146.980469 L 230.332031 134.1875 L 242.542969 227.898438 L 144.371094 240.6875 Z M 132.164062 146.980469 " clip-rule="nonzero"/></clipPath><clipPath id="d7346c9a76"><path d="M 132.164062 146.980469 L 257.851562 130.601562 L 270.15625 225.054688 L 144.46875 241.429688 Z M 132.164062 146.980469 " clip-rule="nonzero"/></clipPath><clipPath id="ede8818715"><path d="M 141 177 L 235 177 L 235 198 L 141 198 Z M 141 177 " clip-rule="nonzero"/></clipPath><clipPath id="b9013a40c5"><path d="M 132.164062 146.980469 L 230.332031 134.1875 L 242.542969 227.898438 L 144.371094 240.6875 Z M 132.164062 146.980469 " clip-rule="nonzero"/></clipPath><clipPath id="03a7965d07"><path d="M 132.164062 146.980469 L 257.851562 130.601562 L 270.15625 225.054688 L 144.46875 241.429688 Z M 132.164062 146.980469 " clip-rule="nonzero"/></clipPath></defs><g clip-path="url(#6f76535891)"><g clip-path="url(#ee3028c190)"><g clip-path="url(#c71f0e13ea)"><path fill="#fd0000" d="M 137.917969 166.484375 L 139.722656 180.347656 C 139.757812 180.617188 139.84375 180.871094 139.980469 181.105469 C 140.117188 181.34375 140.292969 181.542969 140.507812 181.710938 C 140.726562 181.875 140.964844 181.992188 141.230469 182.0625 C 141.492188 182.136719 141.761719 182.152344 142.03125 182.117188 L 147.675781 181.382812 C 147.945312 181.347656 148.199219 181.261719 148.4375 181.125 C 148.675781 180.988281 148.875 180.8125 149.042969 180.597656 C 149.210938 180.382812 149.328125 180.140625 149.398438 179.878906 C 149.472656 179.617188 149.488281 179.351562 149.453125 179.082031 L 147.648438 165.21875 C 147.613281 164.949219 147.527344 164.695312 147.390625 164.457031 C 147.253906 164.222656 147.078125 164.023438 146.863281 163.855469 C 146.644531 163.691406 146.40625 163.574219 146.140625 163.5 C 145.878906 163.429688 145.609375 163.414062 145.339844 163.449219 L 139.695312 164.183594 C 139.425781 164.21875 139.171875 164.304688 138.933594 164.441406 C 138.695312 164.578125 138.496094 164.753906 138.328125 164.96875 C 138.160156 165.183594 138.042969 165.421875 137.972656 165.6875 C 137.898438 165.949219 137.882812 166.214844 137.917969 166.484375 Z M 137.917969 166.484375 " fill-opacity="1" fill-rule="evenodd"/></g></g></g><g clip-path="url(#2fa04586ab)"><g clip-path="url(#069cfd12ca)"><g clip-path="url(#2385dc0e6a)"><path fill="#fd0000" d="M 141.785156 179.929688 L 230.515625 168.371094 C 230.75 168.339844 230.980469 168.355469 231.207031 168.414062 C 231.433594 168.476562 231.640625 168.578125 231.828125 168.722656 C 232.015625 168.867188 232.167969 169.042969 232.285156 169.246094 C 232.402344 169.449219 232.476562 169.667969 232.507812 169.902344 L 239.242188 221.585938 C 239.269531 221.820312 239.253906 222.050781 239.195312 222.277344 C 239.132812 222.503906 239.03125 222.710938 238.886719 222.898438 C 238.742188 223.085938 238.570312 223.238281 238.367188 223.355469 C 238.160156 223.472656 237.941406 223.546875 237.710938 223.578125 L 148.980469 235.140625 C 148.746094 235.167969 148.515625 235.152344 148.289062 235.09375 C 148.0625 235.03125 147.855469 234.929688 147.667969 234.785156 C 147.480469 234.640625 147.328125 234.46875 147.210938 234.261719 C 147.09375 234.058594 147.019531 233.839844 146.992188 233.605469 L 140.257812 181.921875 C 140.226562 181.691406 140.242188 181.457031 140.300781 181.230469 C 140.363281 181.003906 140.464844 180.796875 140.609375 180.609375 C 140.753906 180.421875 140.925781 180.269531 141.128906 180.152344 C 141.335938 180.035156 141.554688 179.960938 141.785156 179.929688 Z M 141.785156 179.929688 " fill-opacity="1" fill-rule="evenodd"/></g></g></g><g clip-path="url(#a68544aebb)"><g clip-path="url(#c85b85876e)"><g clip-path="url(#66be5335cf)"><path fill="#fd0000" d="M 138.785156 174 L 231.898438 161.867188 L 233.160156 171.558594 L 140.046875 183.691406 Z M 138.785156 174 " fill-opacity="1" fill-rule="evenodd"/></g></g></g><g clip-path="url(#a962ce2949)"><g clip-path="url(#4315515279)"><g clip-path="url(#32c4312142)"><path fill="#ffffff" d="M 149.855469 181.863281 L 158.765625 180.703125 L 162.332031 171.484375 L 153.421875 172.644531 Z M 149.855469 181.863281 " fill-opacity="1" fill-rule="evenodd"/></g></g></g><g clip-path="url(#30627625cf)"><g clip-path="url(#23ccf6eb14)"><g clip-path="url(#add7d659f9)"><path fill="#ffffff" d="M 172.667969 178.890625 L 181.574219 177.730469 L 185.144531 168.511719 L 176.234375 169.671875 Z M 172.667969 178.890625 " fill-opacity="1" fill-rule="evenodd"/></g></g></g><g clip-path="url(#0db1805eea)"><g clip-path="url(#7fa2339f6b)"><g clip-path="url(#45b3748207)"><path fill="#ffffff" d="M 195.480469 175.917969 L 204.386719 174.757812 L 207.957031 165.539062 L 199.046875 166.699219 Z M 195.480469 175.917969 " fill-opacity="1" fill-rule="evenodd"/></g></g></g><g clip-path="url(#b5302bd6f3)"><g clip-path="url(#f85f0eb58b)"><g clip-path="url(#9b26c3238d)"><path fill="#ffffff" d="M 218.292969 172.945312 L 227.199219 171.785156 L 230.765625 162.566406 L 221.859375 163.726562 Z M 218.292969 172.945312 " fill-opacity="1" fill-rule="evenodd"/></g></g></g><g clip-path="url(#c26929b836)"><g clip-path="url(#6f6bcbe2bd)"><g clip-path="url(#daccf1fda9)"><path fill="#fd0000" d="M 227.359375 141.082031 L 136.453125 164.570312 L 138.90625 174.03125 L 229.8125 150.539062 Z M 227.359375 141.082031 " fill-opacity="1" fill-rule="evenodd"/></g></g></g><g clip-path="url(#88e6922abb)"><g clip-path="url(#7aff3a70fa)"><g clip-path="url(#1cb9664c6c)"><path fill="#ffffff" d="M 228.519531 150.3125 L 219.820312 152.558594 L 213.0625 145.339844 L 221.761719 143.09375 Z M 228.519531 150.3125 " fill-opacity="1" fill-rule="evenodd"/></g></g></g><g clip-path="url(#1b1f461133)"><g clip-path="url(#9b4e96d42e)"><g clip-path="url(#5fe5bc6516)"><path fill="#ffffff" d="M 206.246094 156.066406 L 197.546875 158.3125 L 190.789062 151.09375 L 199.488281 148.847656 Z M 206.246094 156.066406 " fill-opacity="1" fill-rule="evenodd"/></g></g></g><g clip-path="url(#55fab509da)"><g clip-path="url(#2beb221fdd)"><g clip-path="url(#34fabe65be)"><path fill="#ffffff" d="M 183.972656 161.820312 L 175.277344 164.070312 L 168.515625 156.847656 L 177.214844 154.601562 Z M 183.972656 161.820312 " fill-opacity="1" fill-rule="evenodd"/></g></g></g><g clip-path="url(#56435a0322)"><g clip-path="url(#9edcf54dce)"><g clip-path="url(#ec33b320d1)"><path fill="#ffffff" d="M 161.699219 167.574219 L 153.003906 169.824219 L 146.246094 162.605469 L 154.941406 160.355469 Z M 161.699219 167.574219 " fill-opacity="1" fill-rule="evenodd"/></g></g></g><g clip-path="url(#28f63e5ce8)"><g clip-path="url(#6ad87dbe77)"><g clip-path="url(#183fc9a6d4)"><path fill="#ffffff" d="M 144.871094 167.191406 C 144.933594 167.441406 144.949219 167.695312 144.914062 167.949219 C 144.878906 168.207031 144.792969 168.449219 144.660156 168.671875 C 144.527344 168.894531 144.359375 169.085938 144.152344 169.242188 C 143.941406 169.398438 143.714844 169.507812 143.460938 169.574219 C 143.210938 169.636719 142.953125 169.652344 142.695312 169.617188 C 142.4375 169.582031 142.199219 169.496094 141.972656 169.367188 C 141.75 169.234375 141.558594 169.066406 141.402344 168.859375 C 141.246094 168.652344 141.136719 168.421875 141.070312 168.171875 C 140.929688 167.910156 140.855469 167.632812 140.847656 167.335938 C 140.835938 167.039062 140.890625 166.757812 141.007812 166.484375 C 141.128906 166.214844 141.300781 165.984375 141.527344 165.789062 C 141.753906 165.597656 142.011719 165.464844 142.296875 165.390625 C 142.585938 165.3125 142.875 165.304688 143.164062 165.359375 C 143.457031 165.417969 143.722656 165.535156 143.960938 165.710938 C 144.195312 165.886719 144.382812 166.105469 144.519531 166.371094 C 144.65625 166.632812 144.730469 166.910156 144.738281 167.207031 " fill-opacity="1" fill-rule="evenodd"/></g></g></g><g clip-path="url(#1a1f836eec)"><g clip-path="url(#8a92618523)"><g clip-path="url(#bdee752706)"><path stroke-linecap="butt" transform="matrix(0.196387, -0.0255886, 0.0256383, 0.196768, 132.163076, 146.981417)" fill="none" stroke-linejoin="miter" d="M 50.443965 109.269657 C 50.593803 110.559674 50.50639 111.838689 50.164716 113.08464 C 49.820493 114.350111 49.232204 115.504434 48.421953 116.530632 C 47.611703 117.556831 46.645813 118.403972 45.507274 119.049994 C 44.349176 119.693471 43.143425 120.092527 41.828797 120.259052 C 40.536276 120.408599 39.235218 120.318812 37.96729 119.975257 C 36.699363 119.631701 35.562357 119.047094 34.512059 118.255391 C 33.483869 117.446711 32.635083 116.482693 31.987807 115.346359 C 31.340532 114.210026 30.94325 112.987091 30.773853 111.69453 C 30.24049 110.295082 30.049815 108.86079 30.204378 107.372134 C 30.339382 105.880935 30.796688 104.511058 31.561834 103.220917 C 32.343989 101.952841 33.354922 100.913036 34.616738 100.084526 C 35.876006 99.275536 37.253516 98.779704 38.729709 98.594486 C 40.22801 98.392291 41.680438 98.541467 43.092092 99.002974 C 44.520757 99.486545 45.774285 100.245121 46.852677 101.278702 C 47.91151 102.30974 48.707609 103.524983 49.218865 104.941409 C 49.73267 106.338313 49.923344 107.772605 49.768781 109.261261 " stroke="#ffffff" stroke-width="4" stroke-opacity="1" stroke-miterlimit="4"/></g></g></g><g clip-path="url(#3482ebceef)"><g clip-path="url(#101168c198)"><g clip-path="url(#6ae211578c)"><path stroke-linecap="butt" transform="matrix(0.196387, -0.0255886, 0.0256383, 0.196768, 132.163076, 146.981417)" fill="none" stroke-linejoin="miter" d="M 15.455776 188.654104 L 489.649296 188.640074 " stroke="#cccccc" stroke-width="0.692" stroke-opacity="1" stroke-miterlimit="4"/></g></g></g><g clip-path="url(#bf2397962b)"><g clip-path="url(#f1729aa68d)"><g clip-path="url(#4a2ca4cfb1)"><path stroke-linecap="butt" transform="matrix(0.196387, -0.0255886, 0.0256383, 0.196768, 132.163076, 146.981417)" fill="none" stroke-linejoin="miter" d="M 36.650054 370.336838 L 468.5341 370.339562 " stroke="#ffffff" stroke-width="4" stroke-opacity="1" stroke-miterlimit="4"/></g></g></g><g clip-path="url(#1231adcd4f)"><g clip-path="url(#7d1a61909d)"><g clip-path="url(#4fc41b3885)"><path stroke-linecap="butt" transform="matrix(0.196387, -0.0255886, 0.0256383, 0.196768, 132.163076, 146.981417)" fill="none" stroke-linejoin="miter" d="M 163.633271 435.686361 L 163.645749 370.990151 " stroke="#ffffff" stroke-width="4" stroke-opacity="1" stroke-miterlimit="4"/></g></g></g><g clip-path="url(#03339c37ed)"><g clip-path="url(#c937f3695f)"><g clip-path="url(#ed36993d2e)"><path stroke-linecap="butt" transform="matrix(0.196387, -0.0255886, 0.0256383, 0.196768, 132.163076, 146.981417)" fill="none" stroke-linejoin="miter" d="M 341.553315 435.696258 L 341.546235 370.997504 " stroke="#ffffff" stroke-width="4" stroke-opacity="1" stroke-miterlimit="4"/></g></g></g><g clip-path="url(#8a50928fc4)"><g clip-path="url(#bda71bcc22)"><g clip-path="url(#d7346c9a76)"><path stroke-linecap="butt" transform="matrix(0.196387, -0.0255886, 0.0256383, 0.196768, 132.163076, 146.981417)" fill="none" stroke-linejoin="miter" d="M 36.645522 305.618563 L 468.529568 305.621287 " stroke="#ffffff" stroke-width="4" stroke-opacity="1" stroke-miterlimit="4"/></g></g></g><g clip-path="url(#ede8818715)"><g clip-path="url(#b9013a40c5)"><g clip-path="url(#03a7965d07)"><path stroke-linecap="butt" transform="matrix(0.196387, -0.0255886, 0.0256383, 0.196768, 132.163076, 146.981417)" fill="none" stroke-linejoin="miter" d="M 36.64099 240.900288 L 468.544594 240.905555 " stroke="#ffffff" stroke-width="4" stroke-opacity="1" stroke-miterlimit="4"/></g></g></g></svg>