<svg xmlns="http://www.w3.org/2000/svg" xmlns:xlink="http://www.w3.org/1999/xlink" width="500" zoomAndPan="magnify" viewBox="0 0 375 374.999991" height="500" preserveAspectRatio="xMidYMid meet" version="1.0"><defs><g/><clipPath id="113f6af1ad"><path d="M 142 137 L 154 137 L 154 155 L 142 155 Z M 142 137 " clip-rule="nonzero"/></clipPath><clipPath id="49860db9aa"><path d="M 137.375 122.914062 L 226.855469 111.253906 L 237.984375 196.667969 L 148.503906 208.324219 Z M 137.375 122.914062 " clip-rule="nonzero"/></clipPath><clipPath id="ef4d8eca78"><path d="M 137.375 122.914062 L 251.257812 108.074219 L 262.386719 193.488281 L 148.503906 208.324219 Z M 137.375 122.914062 " clip-rule="nonzero"/></clipPath><clipPath id="5453f10e18"><path d="M 144 142 L 235 142 L 235 203 L 144 203 Z M 144 142 " clip-rule="nonzero"/></clipPath><clipPath id="e50c9b4203"><path d="M 137.375 122.914062 L 226.855469 111.253906 L 237.984375 196.667969 L 148.503906 208.324219 Z M 137.375 122.914062 " clip-rule="nonzero"/></clipPath><clipPath id="09ca062e2a"><path d="M 137.375 122.914062 L 251.257812 108.074219 L 262.386719 193.488281 L 148.503906 208.324219 Z M 137.375 122.914062 " clip-rule="nonzero"/></clipPath><clipPath id="dc9b753bb8"><path d="M 143 136 L 229 136 L 229 157 L 143 157 Z M 143 136 " clip-rule="nonzero"/></clipPath><clipPath id="90bb25d2fd"><path d="M 137.375 122.914062 L 226.855469 111.253906 L 237.984375 196.667969 L 148.503906 208.324219 Z M 137.375 122.914062 " clip-rule="nonzero"/></clipPath><clipPath id="4f071a4c5c"><path d="M 137.375 122.914062 L 251.257812 108.074219 L 262.386719 193.488281 L 148.503906 208.324219 Z M 137.375 122.914062 " clip-rule="nonzero"/></clipPath><clipPath id="2982a6a6b2"><path d="M 153 145 L 165 145 L 165 155 L 153 155 Z M 153 145 " clip-rule="nonzero"/></clipPath><clipPath id="712a71ccde"><path d="M 137.375 122.914062 L 226.855469 111.253906 L 237.984375 196.667969 L 148.503906 208.324219 Z M 137.375 122.914062 " clip-rule="nonzero"/></clipPath><clipPath id="c7e7d7f0c9"><path d="M 137.375 122.914062 L 251.257812 108.074219 L 262.386719 193.488281 L 148.503906 208.324219 Z M 137.375 122.914062 " clip-rule="nonzero"/></clipPath><clipPath id="2a05e01ba2"><path d="M 174 142 L 186 142 L 186 152 L 174 152 Z M 174 142 " clip-rule="nonzero"/></clipPath><clipPath id="ce6e8611d8"><path d="M 137.375 122.914062 L 226.855469 111.253906 L 237.984375 196.667969 L 148.503906 208.324219 Z M 137.375 122.914062 " clip-rule="nonzero"/></clipPath><clipPath id="4655673b0f"><path d="M 137.375 122.914062 L 251.257812 108.074219 L 262.386719 193.488281 L 148.503906 208.324219 Z M 137.375 122.914062 " clip-rule="nonzero"/></clipPath><clipPath id="a06690ae60"><path d="M 194 139 L 207 139 L 207 150 L 194 150 Z M 194 139 " clip-rule="nonzero"/></clipPath><clipPath id="22e5aeb155"><path d="M 137.375 122.914062 L 226.855469 111.253906 L 237.984375 196.667969 L 148.503906 208.324219 Z M 137.375 122.914062 " clip-rule="nonzero"/></clipPath><clipPath id="193cf45739"><path d="M 137.375 122.914062 L 251.257812 108.074219 L 262.386719 193.488281 L 148.503906 208.324219 Z M 137.375 122.914062 " clip-rule="nonzero"/></clipPath><clipPath id="bc6f27a08a"><path d="M 215 136 L 227 136 L 227 147 L 215 147 Z M 215 136 " clip-rule="nonzero"/></clipPath><clipPath id="a13aec7acc"><path d="M 137.375 122.914062 L 226.855469 111.253906 L 237.984375 196.667969 L 148.503906 208.324219 Z M 137.375 122.914062 " clip-rule="nonzero"/></clipPath><clipPath id="7c0f9bd655"><path d="M 137.375 122.914062 L 251.257812 108.074219 L 262.386719 193.488281 L 148.503906 208.324219 Z M 137.375 122.914062 " clip-rule="nonzero"/></clipPath><clipPath id="d1aff19181"><path d="M 141 117 L 226 117 L 226 148 L 141 148 Z M 141 117 " clip-rule="nonzero"/></clipPath><clipPath id="a3b9298a5b"><path d="M 137.375 122.914062 L 226.855469 111.253906 L 237.984375 196.667969 L 148.503906 208.324219 Z M 137.375 122.914062 " clip-rule="nonzero"/></clipPath><clipPath id="ab097579ed"><path d="M 137.375 122.914062 L 251.257812 108.074219 L 262.386719 193.488281 L 148.503906 208.324219 Z M 137.375 122.914062 " clip-rule="nonzero"/></clipPath><clipPath id="88433e6eba"><path d="M 210 119 L 225 119 L 225 128 L 210 128 Z M 210 119 " clip-rule="nonzero"/></clipPath><clipPath id="b319de41b6"><path d="M 137.375 122.914062 L 226.855469 111.253906 L 237.984375 196.667969 L 148.503906 208.324219 Z M 137.375 122.914062 " clip-rule="nonzero"/></clipPath><clipPath id="091a8c477c"><path d="M 137.375 122.914062 L 251.257812 108.074219 L 262.386719 193.488281 L 148.503906 208.324219 Z M 137.375 122.914062 " clip-rule="nonzero"/></clipPath><clipPath id="c37171f520"><path d="M 190 124 L 205 124 L 205 134 L 190 134 Z M 190 124 " clip-rule="nonzero"/></clipPath><clipPath id="b2d3f6f0cf"><path d="M 137.375 122.914062 L 226.855469 111.253906 L 237.984375 196.667969 L 148.503906 208.324219 Z M 137.375 122.914062 " clip-rule="nonzero"/></clipPath><clipPath id="0c0cfd741f"><path d="M 137.375 122.914062 L 251.257812 108.074219 L 262.386719 193.488281 L 148.503906 208.324219 Z M 137.375 122.914062 " clip-rule="nonzero"/></clipPath><clipPath id="a5c7f38e4f"><path d="M 170 129 L 185 129 L 185 139 L 170 139 Z M 170 129 " clip-rule="nonzero"/></clipPath><clipPath id="dbcbe42f31"><path d="M 137.375 122.914062 L 226.855469 111.253906 L 237.984375 196.667969 L 148.503906 208.324219 Z M 137.375 122.914062 " clip-rule="nonzero"/></clipPath><clipPath id="b79f6d88ac"><path d="M 137.375 122.914062 L 251.257812 108.074219 L 262.386719 193.488281 L 148.503906 208.324219 Z M 137.375 122.914062 " clip-rule="nonzero"/></clipPath><clipPath id="37538e0a89"><path d="M 150 135 L 165 135 L 165 144 L 150 144 Z M 150 135 " clip-rule="nonzero"/></clipPath><clipPath id="fe81799427"><path d="M 137.375 122.914062 L 226.855469 111.253906 L 237.984375 196.667969 L 148.503906 208.324219 Z M 137.375 122.914062 " clip-rule="nonzero"/></clipPath><clipPath id="1dd5a40033"><path d="M 137.375 122.914062 L 251.257812 108.074219 L 262.386719 193.488281 L 148.503906 208.324219 Z M 137.375 122.914062 " clip-rule="nonzero"/></clipPath><clipPath id="2f5de82f13"><path d="M 145 139 L 149 139 L 149 144 L 145 144 Z M 145 139 " clip-rule="nonzero"/></clipPath><clipPath id="d6411c3a12"><path d="M 137.375 122.914062 L 226.855469 111.253906 L 237.984375 196.667969 L 148.503906 208.324219 Z M 137.375 122.914062 " clip-rule="nonzero"/></clipPath><clipPath id="bef1f8150a"><path d="M 137.375 122.914062 L 251.257812 108.074219 L 262.386719 193.488281 L 148.503906 208.324219 Z M 137.375 122.914062 " clip-rule="nonzero"/></clipPath><clipPath id="4a8778d051"><path d="M 141 135 L 153 135 L 153 148 L 141 148 Z M 141 135 " clip-rule="nonzero"/></clipPath><clipPath id="d6d32d9fb3"><path d="M 137.375 122.914062 L 226.855469 111.253906 L 237.984375 196.667969 L 148.503906 208.324219 Z M 137.375 122.914062 " clip-rule="nonzero"/></clipPath><clipPath id="7d64addd90"><path d="M 137.375 122.914062 L 251.257812 108.074219 L 262.386719 193.488281 L 148.503906 208.324219 Z M 137.375 122.914062 " clip-rule="nonzero"/></clipPath><clipPath id="da0a964e19"><path d="M 143 144 L 230 144 L 230 157 L 143 157 Z M 143 144 " clip-rule="nonzero"/></clipPath><clipPath id="02e2e6adb5"><path d="M 137.375 122.914062 L 226.855469 111.253906 L 237.984375 196.667969 L 148.503906 208.324219 Z M 137.375 122.914062 " clip-rule="nonzero"/></clipPath><clipPath id="43fc6838ae"><path d="M 137.375 122.914062 L 251.257812 108.074219 L 262.386719 193.488281 L 148.503906 208.324219 Z M 137.375 122.914062 " clip-rule="nonzero"/></clipPath><clipPath id="c5b283aa1b"><path d="M 148 173 L 234 173 L 234 193 L 148 193 Z M 148 173 " clip-rule="nonzero"/></clipPath><clipPath id="78d5f5c639"><path d="M 137.375 122.914062 L 226.855469 111.253906 L 237.984375 196.667969 L 148.503906 208.324219 Z M 137.375 122.914062 " clip-rule="nonzero"/></clipPath><clipPath id="d6a5d35aa4"><path d="M 137.375 122.914062 L 251.257812 108.074219 L 262.386719 193.488281 L 148.503906 208.324219 Z M 137.375 122.914062 " clip-rule="nonzero"/></clipPath><clipPath id="866b194e48"><path d="M 171 181 L 181 181 L 181 201 L 171 201 Z M 171 181 " clip-rule="nonzero"/></clipPath><clipPath id="51f1ca8715"><path d="M 137.375 122.914062 L 226.855469 111.253906 L 237.984375 196.667969 L 148.503906 208.324219 Z M 137.375 122.914062 " clip-rule="nonzero"/></clipPath><clipPath id="2ea99ccc3b"><path d="M 137.375 122.914062 L 251.257812 108.074219 L 262.386719 193.488281 L 148.503906 208.324219 Z M 137.375 122.914062 " clip-rule="nonzero"/></clipPath><clipPath id="2b26f0ea6d"><path d="M 202 176 L 213 176 L 213 197 L 202 197 Z M 202 176 " clip-rule="nonzero"/></clipPath><clipPath id="0b50a79f1e"><path d="M 137.375 122.914062 L 226.855469 111.253906 L 237.984375 196.667969 L 148.503906 208.324219 Z M 137.375 122.914062 " clip-rule="nonzero"/></clipPath><clipPath id="2799aafbde"><path d="M 137.375 122.914062 L 251.257812 108.074219 L 262.386719 193.488281 L 148.503906 208.324219 Z M 137.375 122.914062 " clip-rule="nonzero"/></clipPath><clipPath id="cea2248c41"><path d="M 146 162 L 232 162 L 232 181 L 146 181 Z M 146 162 " clip-rule="nonzero"/></clipPath><clipPath id="0bf84aab8b"><path d="M 137.375 122.914062 L 226.855469 111.253906 L 237.984375 196.667969 L 148.503906 208.324219 Z M 137.375 122.914062 " clip-rule="nonzero"/></clipPath><clipPath id="8cd1bfe0a0"><path d="M 137.375 122.914062 L 251.257812 108.074219 L 262.386719 193.488281 L 148.503906 208.324219 Z M 137.375 122.914062 " clip-rule="nonzero"/></clipPath><clipPath id="9eb82177c1"><path d="M 145 150 L 231 150 L 231 169 L 145 169 Z M 145 150 " clip-rule="nonzero"/></clipPath><clipPath id="1a2c325521"><path d="M 137.375 122.914062 L 226.855469 111.253906 L 237.984375 196.667969 L 148.503906 208.324219 Z M 137.375 122.914062 " clip-rule="nonzero"/></clipPath><clipPath id="1c25457de2"><path d="M 137.375 122.914062 L 251.257812 108.074219 L 262.386719 193.488281 L 148.503906 208.324219 Z M 137.375 122.914062 " clip-rule="nonzero"/></clipPath></defs><g fill="#ff3131" fill-opacity="1"><g transform="translate(33.117174, 250.490681)"><g><path d="M 21.6875 -8.75 L 12.828125 -8.75 C 9.441406 -8.75 7.003906 -9.457031 5.515625 -10.875 C 4.035156 -12.289062 3.296875 -14.484375 3.296875 -17.453125 L 3.296875 -35.828125 C 3.296875 -36.492188 3.441406 -36.972656 3.734375 -37.265625 C 4.035156 -37.566406 4.519531 -37.71875 5.1875 -37.71875 L 13.3125 -37.71875 C 13.96875 -37.71875 14.441406 -37.566406 14.734375 -37.265625 C 15.035156 -36.972656 15.1875 -36.492188 15.1875 -35.828125 L 15.1875 -21.484375 C 15.1875 -20.921875 15.332031 -20.484375 15.625 -20.171875 C 15.925781 -19.859375 16.320312 -19.703125 16.8125 -19.703125 L 21.6875 -19.703125 L 21.6875 -35.828125 C 21.6875 -36.492188 21.832031 -36.972656 22.125 -37.265625 C 22.425781 -37.566406 22.910156 -37.71875 23.578125 -37.71875 L 31.640625 -37.71875 C 32.304688 -37.71875 32.785156 -37.566406 33.078125 -37.265625 C 33.378906 -36.972656 33.53125 -36.492188 33.53125 -35.828125 L 33.53125 -1.890625 C 33.53125 -1.222656 33.378906 -0.738281 33.078125 -0.4375 C 32.785156 -0.144531 32.304688 0 31.640625 0 L 23.578125 0 C 22.910156 0 22.425781 -0.144531 22.125 -0.4375 C 21.832031 -0.738281 21.6875 -1.222656 21.6875 -1.890625 Z M 21.6875 -8.75 "/></g></g></g><g fill="#ff3131" fill-opacity="1"><g transform="translate(70.26276, 250.490681)"><g><path d="M 17.28125 -26.71875 L 14.828125 -18.75 L 23.046875 -18.75 L 20.59375 -26.71875 C 20.445312 -27.03125 20.296875 -27.253906 20.140625 -27.390625 C 19.984375 -27.535156 19.800781 -27.609375 19.59375 -27.609375 L 18.28125 -27.609375 C 18.070312 -27.609375 17.890625 -27.535156 17.734375 -27.390625 C 17.578125 -27.253906 17.425781 -27.03125 17.28125 -26.71875 Z M 14.296875 -1.890625 C 14.296875 -1.222656 14.144531 -0.738281 13.84375 -0.4375 C 13.550781 -0.144531 13.078125 0 12.421875 0 L 4.71875 0 C 4.050781 0 3.566406 -0.144531 3.265625 -0.4375 C 2.972656 -0.738281 2.828125 -1.222656 2.828125 -1.890625 L 2.828125 -15.71875 C 2.828125 -16.757812 2.992188 -17.960938 3.328125 -19.328125 C 3.660156 -20.691406 4.175781 -22.28125 4.875 -24.09375 L 9.4375 -36 C 9.644531 -36.59375 9.960938 -37.023438 10.390625 -37.296875 C 10.828125 -37.578125 11.398438 -37.71875 12.109375 -37.71875 L 26.1875 -37.71875 C 26.851562 -37.71875 27.40625 -37.578125 27.84375 -37.296875 C 28.28125 -37.023438 28.601562 -36.59375 28.8125 -36 L 33.375 -24.09375 C 34.070312 -22.28125 34.585938 -20.691406 34.921875 -19.328125 C 35.253906 -17.960938 35.421875 -16.757812 35.421875 -15.71875 L 35.421875 -1.890625 C 35.421875 -1.222656 35.269531 -0.738281 34.96875 -0.4375 C 34.675781 -0.144531 34.195312 0 33.53125 0 L 25.625 0 C 24.925781 0 24.410156 -0.144531 24.078125 -0.4375 C 23.742188 -0.738281 23.578125 -1.222656 23.578125 -1.890625 L 23.578125 -9.21875 L 14.296875 -9.21875 Z M 14.296875 -1.890625 "/></g></g></g><g fill="#ff3131" fill-opacity="1"><g transform="translate(108.50858, 250.490681)"><g><path d="M 29.8125 0 L 5.5 0 C 4.832031 0 4.347656 -0.144531 4.046875 -0.4375 C 3.753906 -0.738281 3.609375 -1.222656 3.609375 -1.890625 L 3.609375 -35.828125 C 3.609375 -36.492188 3.753906 -36.972656 4.046875 -37.265625 C 4.347656 -37.566406 4.832031 -37.71875 5.5 -37.71875 L 29.8125 -37.71875 C 30.476562 -37.71875 30.957031 -37.566406 31.25 -37.265625 C 31.550781 -36.972656 31.703125 -36.492188 31.703125 -35.828125 L 31.703125 -29.703125 C 31.703125 -29.035156 31.550781 -28.550781 31.25 -28.25 C 30.957031 -27.957031 30.476562 -27.8125 29.8125 -27.8125 L 15.34375 -27.8125 L 15.34375 -23.78125 L 25.5625 -23.78125 C 26.226562 -23.78125 26.707031 -23.628906 27 -23.328125 C 27.300781 -23.035156 27.453125 -22.5625 27.453125 -21.90625 L 27.453125 -16.296875 C 27.453125 -15.628906 27.300781 -15.144531 27 -14.84375 C 26.707031 -14.550781 26.226562 -14.40625 25.5625 -14.40625 L 15.34375 -14.40625 L 15.34375 -9.90625 L 29.8125 -9.90625 C 30.476562 -9.90625 30.957031 -9.753906 31.25 -9.453125 C 31.550781 -9.160156 31.703125 -8.679688 31.703125 -8.015625 L 31.703125 -1.890625 C 31.703125 -1.222656 31.550781 -0.738281 31.25 -0.4375 C 30.957031 -0.144531 30.476562 0 29.8125 0 Z M 29.8125 0 "/></g></g></g><g fill="#ff3131" fill-opacity="1"><g transform="translate(142.772641, 250.490681)"><g/></g></g><g fill="#ff3131" fill-opacity="1"><g transform="translate(154.560735, 250.490681)"><g><path d="M 13.3125 0 L 5.5 0 C 4.832031 0 4.347656 -0.144531 4.046875 -0.4375 C 3.753906 -0.738281 3.609375 -1.222656 3.609375 -1.890625 L 3.609375 -35.828125 C 3.609375 -36.492188 3.753906 -36.972656 4.046875 -37.265625 C 4.347656 -37.566406 4.832031 -37.71875 5.5 -37.71875 L 13.9375 -37.71875 C 14.5 -37.71875 14.960938 -37.59375 15.328125 -37.34375 C 15.691406 -37.101562 16.03125 -36.707031 16.34375 -36.15625 L 21.0625 -27.609375 C 21.238281 -27.296875 21.382812 -27.066406 21.5 -26.921875 C 21.625 -26.785156 21.789062 -26.71875 22 -26.71875 L 22.46875 -26.71875 C 22.6875 -26.71875 22.851562 -26.785156 22.96875 -26.921875 C 23.09375 -27.066406 23.242188 -27.296875 23.421875 -27.609375 L 28.078125 -36.15625 C 28.390625 -36.707031 28.726562 -37.101562 29.09375 -37.34375 C 29.46875 -37.59375 29.929688 -37.71875 30.484375 -37.71875 L 38.984375 -37.71875 C 39.640625 -37.71875 40.113281 -37.566406 40.40625 -37.265625 C 40.707031 -36.972656 40.859375 -36.492188 40.859375 -35.828125 L 40.859375 -1.890625 C 40.859375 -1.222656 40.707031 -0.738281 40.40625 -0.4375 C 40.113281 -0.144531 39.640625 0 38.984375 0 L 30.90625 0 C 30.25 0 29.769531 -0.144531 29.46875 -0.4375 C 29.175781 -0.738281 29.03125 -1.222656 29.03125 -1.890625 L 29.03125 -20.328125 L 25.9375 -14.609375 C 25.625 -14.015625 25.25 -13.585938 24.8125 -13.328125 C 24.375 -13.066406 23.820312 -12.9375 23.15625 -12.9375 L 21.0625 -12.9375 C 20.394531 -12.9375 19.84375 -13.066406 19.40625 -13.328125 C 18.96875 -13.585938 18.59375 -14.015625 18.28125 -14.609375 L 15.1875 -20.328125 L 15.1875 -1.890625 C 15.1875 -1.222656 15.035156 -0.738281 14.734375 -0.4375 C 14.441406 -0.144531 13.96875 0 13.3125 0 Z M 13.3125 0 "/></g></g></g><g fill="#ff3131" fill-opacity="1"><g transform="translate(199.041137, 250.490681)"><g><path d="M 35.578125 -9.90625 C 35.578125 -8.289062 35.335938 -6.828125 34.859375 -5.515625 C 34.390625 -4.210938 33.550781 -3.097656 32.34375 -2.171875 C 31.144531 -1.242188 29.488281 -0.519531 27.375 0 C 25.257812 0.519531 22.578125 0.78125 19.328125 0.78125 C 16.078125 0.78125 13.382812 0.519531 11.25 0 C 9.125 -0.519531 7.457031 -1.242188 6.25 -2.171875 C 5.050781 -3.097656 4.210938 -4.210938 3.734375 -5.515625 C 3.265625 -6.828125 3.03125 -8.289062 3.03125 -9.90625 L 3.03125 -27.765625 C 3.03125 -29.367188 3.265625 -30.828125 3.734375 -32.140625 C 4.210938 -33.453125 5.050781 -34.578125 6.25 -35.515625 C 7.457031 -36.460938 9.125 -37.195312 11.25 -37.71875 C 13.382812 -38.238281 16.078125 -38.5 19.328125 -38.5 C 22.578125 -38.5 25.257812 -38.238281 27.375 -37.71875 C 29.488281 -37.195312 31.144531 -36.460938 32.34375 -35.515625 C 33.550781 -34.578125 34.390625 -33.453125 34.859375 -32.140625 C 35.335938 -30.828125 35.578125 -29.367188 35.578125 -27.765625 Z M 14.9375 -11.78125 C 14.9375 -11.082031 15.195312 -10.5 15.71875 -10.03125 C 16.238281 -9.5625 17.441406 -9.328125 19.328125 -9.328125 C 21.210938 -9.328125 22.414062 -9.5625 22.9375 -10.03125 C 23.46875 -10.5 23.734375 -11.082031 23.734375 -11.78125 L 23.734375 -25.875 C 23.734375 -26.539062 23.46875 -27.109375 22.9375 -27.578125 C 22.414062 -28.054688 21.210938 -28.296875 19.328125 -28.296875 C 17.441406 -28.296875 16.238281 -28.054688 15.71875 -27.578125 C 15.195312 -27.109375 14.9375 -26.539062 14.9375 -25.875 Z M 14.9375 -11.78125 "/></g></g></g><g fill="#ff3131" fill-opacity="1"><g transform="translate(237.653692, 250.490681)"><g><path d="M 25.9375 0 L 12.3125 0 C 11.644531 0 11.09375 -0.117188 10.65625 -0.359375 C 10.21875 -0.609375 9.878906 -1.066406 9.640625 -1.734375 L 4.5 -14.5625 C 4.1875 -15.332031 3.925781 -16.003906 3.71875 -16.578125 C 3.507812 -17.160156 3.332031 -17.710938 3.1875 -18.234375 C 3.050781 -18.753906 2.957031 -19.300781 2.90625 -19.875 C 2.851562 -20.457031 2.828125 -21.164062 2.828125 -22 L 2.828125 -35.828125 C 2.828125 -36.492188 2.972656 -36.972656 3.265625 -37.265625 C 3.566406 -37.566406 4.050781 -37.71875 4.71875 -37.71875 L 13.046875 -37.71875 C 13.710938 -37.71875 14.21875 -37.566406 14.5625 -37.265625 C 14.914062 -36.972656 15.09375 -36.492188 15.09375 -35.828125 L 15.09375 -21.375 C 15.09375 -21.019531 15.125 -20.664062 15.1875 -20.3125 C 15.257812 -19.96875 15.363281 -19.609375 15.5 -19.234375 L 17.96875 -11.890625 C 18.070312 -11.546875 18.191406 -11.3125 18.328125 -11.1875 C 18.472656 -11.0625 18.6875 -11 18.96875 -11 L 19.546875 -11 C 19.816406 -11 20.019531 -11.0625 20.15625 -11.1875 C 20.300781 -11.3125 20.425781 -11.546875 20.53125 -11.890625 L 23 -19.28125 C 23.132812 -19.664062 23.238281 -20.03125 23.3125 -20.375 C 23.382812 -20.726562 23.421875 -21.078125 23.421875 -21.421875 L 23.421875 -35.828125 C 23.421875 -36.492188 23.566406 -36.972656 23.859375 -37.265625 C 24.160156 -37.566406 24.640625 -37.71875 25.296875 -37.71875 L 33.53125 -37.71875 C 34.195312 -37.71875 34.675781 -37.566406 34.96875 -37.265625 C 35.269531 -36.972656 35.421875 -36.492188 35.421875 -35.828125 L 35.421875 -22 C 35.421875 -21.164062 35.394531 -20.457031 35.34375 -19.875 C 35.289062 -19.300781 35.191406 -18.753906 35.046875 -18.234375 C 34.910156 -17.710938 34.738281 -17.160156 34.53125 -16.578125 C 34.320312 -16.003906 34.054688 -15.332031 33.734375 -14.5625 L 28.609375 -1.734375 C 28.359375 -1.066406 28.015625 -0.609375 27.578125 -0.359375 C 27.140625 -0.117188 26.59375 0 25.9375 0 Z M 25.9375 0 "/></g></g></g><g fill="#ff3131" fill-opacity="1"><g transform="translate(275.899512, 250.490681)"><g><path d="M 4.65625 0 C 4 0 3.519531 -0.144531 3.21875 -0.4375 C 2.925781 -0.738281 2.78125 -1.222656 2.78125 -1.890625 L 2.78125 -8.125 C 2.78125 -8.78125 2.925781 -9.253906 3.21875 -9.546875 C 3.519531 -9.847656 4 -10 4.65625 -10 L 9.84375 -10 L 9.84375 -27.609375 L 4.65625 -27.609375 C 4 -27.609375 3.519531 -27.753906 3.21875 -28.046875 C 2.925781 -28.347656 2.78125 -28.832031 2.78125 -29.5 L 2.78125 -35.828125 C 2.78125 -36.492188 2.925781 -36.972656 3.21875 -37.265625 C 3.519531 -37.566406 4 -37.71875 4.65625 -37.71875 L 26.984375 -37.71875 C 27.648438 -37.71875 28.128906 -37.566406 28.421875 -37.265625 C 28.722656 -36.972656 28.875 -36.492188 28.875 -35.828125 L 28.875 -29.5 C 28.875 -28.832031 28.722656 -28.347656 28.421875 -28.046875 C 28.128906 -27.753906 27.648438 -27.609375 26.984375 -27.609375 L 21.90625 -27.609375 L 21.90625 -10 L 26.984375 -10 C 27.648438 -10 28.128906 -9.847656 28.421875 -9.546875 C 28.722656 -9.253906 28.875 -8.78125 28.875 -8.125 L 28.875 -1.890625 C 28.875 -1.222656 28.722656 -0.738281 28.421875 -0.4375 C 28.128906 -0.144531 27.648438 0 26.984375 0 Z M 4.65625 0 "/></g></g></g><g fill="#ff3131" fill-opacity="1"><g transform="translate(307.596385, 250.490681)"><g><path d="M 29.8125 0 L 5.5 0 C 4.832031 0 4.347656 -0.144531 4.046875 -0.4375 C 3.753906 -0.738281 3.609375 -1.222656 3.609375 -1.890625 L 3.609375 -35.828125 C 3.609375 -36.492188 3.753906 -36.972656 4.046875 -37.265625 C 4.347656 -37.566406 4.832031 -37.71875 5.5 -37.71875 L 29.8125 -37.71875 C 30.476562 -37.71875 30.957031 -37.566406 31.25 -37.265625 C 31.550781 -36.972656 31.703125 -36.492188 31.703125 -35.828125 L 31.703125 -29.703125 C 31.703125 -29.035156 31.550781 -28.550781 31.25 -28.25 C 30.957031 -27.957031 30.476562 -27.8125 29.8125 -27.8125 L 15.34375 -27.8125 L 15.34375 -23.78125 L 25.5625 -23.78125 C 26.226562 -23.78125 26.707031 -23.628906 27 -23.328125 C 27.300781 -23.035156 27.453125 -22.5625 27.453125 -21.90625 L 27.453125 -16.296875 C 27.453125 -15.628906 27.300781 -15.144531 27 -14.84375 C 26.707031 -14.550781 26.226562 -14.40625 25.5625 -14.40625 L 15.34375 -14.40625 L 15.34375 -9.90625 L 29.8125 -9.90625 C 30.476562 -9.90625 30.957031 -9.753906 31.25 -9.453125 C 31.550781 -9.160156 31.703125 -8.679688 31.703125 -8.015625 L 31.703125 -1.890625 C 31.703125 -1.222656 31.550781 -0.738281 31.25 -0.4375 C 30.957031 -0.144531 30.476562 0 29.8125 0 Z M 29.8125 0 "/></g></g></g><g clip-path="url(#113f6af1ad)"><g clip-path="url(#49860db9aa)"><g clip-path="url(#ef4d8eca78)"><path fill="#ff3131" d="M 142.585938 140.550781 L 144.21875 153.089844 C 144.25 153.332031 144.328125 153.5625 144.453125 153.773438 C 144.574219 153.988281 144.734375 154.167969 144.929688 154.320312 C 145.125 154.46875 145.34375 154.574219 145.582031 154.640625 C 145.820312 154.703125 146.066406 154.71875 146.308594 154.6875 L 151.421875 154.019531 C 151.667969 153.988281 151.898438 153.910156 152.113281 153.789062 C 152.328125 153.664062 152.511719 153.507812 152.664062 153.3125 C 152.8125 153.117188 152.921875 152.898438 152.988281 152.664062 C 153.050781 152.425781 153.066406 152.183594 153.035156 151.941406 L 151.402344 139.402344 C 151.371094 139.160156 151.292969 138.929688 151.167969 138.71875 C 151.046875 138.503906 150.886719 138.324219 150.691406 138.171875 C 150.496094 138.023438 150.277344 137.917969 150.039062 137.851562 C 149.796875 137.789062 149.554688 137.773438 149.3125 137.804688 L 144.195312 138.472656 C 143.953125 138.503906 143.722656 138.582031 143.507812 138.703125 C 143.292969 138.828125 143.109375 138.984375 142.957031 139.179688 C 142.808594 139.375 142.699219 139.59375 142.632812 139.828125 C 142.570312 140.066406 142.554688 140.308594 142.585938 140.550781 Z M 142.585938 140.550781 " fill-opacity="1" fill-rule="evenodd"/></g></g></g><g clip-path="url(#5453f10e18)"><g clip-path="url(#e50c9b4203)"><g clip-path="url(#09ca062e2a)"><path fill="#ff3131" d="M 146.089844 152.710938 L 226.484375 142.234375 C 226.695312 142.207031 226.902344 142.222656 227.109375 142.277344 C 227.316406 142.332031 227.503906 142.425781 227.671875 142.554688 C 227.839844 142.683594 227.980469 142.84375 228.085938 143.027344 C 228.191406 143.210938 228.257812 143.410156 228.285156 143.621094 L 234.375 190.355469 C 234.402344 190.566406 234.390625 190.777344 234.335938 190.980469 C 234.277344 191.1875 234.1875 191.375 234.054688 191.542969 C 233.925781 191.714844 233.769531 191.851562 233.582031 191.957031 C 233.398438 192.0625 233.199219 192.132812 232.988281 192.160156 L 152.59375 202.632812 C 152.382812 202.660156 152.171875 202.648438 151.96875 202.59375 C 151.761719 202.535156 151.574219 202.445312 151.40625 202.3125 C 151.234375 202.183594 151.097656 202.027344 150.992188 201.839844 C 150.886719 201.65625 150.820312 201.457031 150.789062 201.246094 L 144.703125 154.511719 C 144.675781 154.300781 144.6875 154.09375 144.742188 153.886719 C 144.800781 153.679688 144.890625 153.492188 145.023438 153.324219 C 145.152344 153.15625 145.308594 153.015625 145.492188 152.910156 C 145.679688 152.804688 145.878906 152.738281 146.089844 152.710938 Z M 146.089844 152.710938 " fill-opacity="1" fill-rule="evenodd"/></g></g></g><g clip-path="url(#dc9b753bb8)"><g clip-path="url(#90bb25d2fd)"><g clip-path="url(#4f071a4c5c)"><path fill="#ff3131" d="M 143.371094 147.347656 L 227.734375 136.355469 L 228.878906 145.117188 L 144.511719 156.109375 Z M 143.371094 147.347656 " fill-opacity="1" fill-rule="evenodd"/></g></g></g><g clip-path="url(#2982a6a6b2)"><g clip-path="url(#712a71ccde)"><g clip-path="url(#c7e7d7f0c9)"><path fill="#ffffff" d="M 153.398438 154.457031 L 161.46875 153.402344 L 164.703125 145.066406 L 156.632812 146.117188 Z M 153.398438 154.457031 " fill-opacity="1" fill-rule="evenodd"/></g></g></g><g clip-path="url(#2a05e01ba2)"><g clip-path="url(#ce6e8611d8)"><g clip-path="url(#4655673b0f)"><path fill="#ffffff" d="M 174.066406 151.761719 L 182.140625 150.710938 L 185.375 142.375 L 177.300781 143.425781 Z M 174.066406 151.761719 " fill-opacity="1" fill-rule="evenodd"/></g></g></g><g clip-path="url(#a06690ae60)"><g clip-path="url(#22e5aeb155)"><g clip-path="url(#193cf45739)"><path fill="#ffffff" d="M 194.738281 149.070312 L 202.808594 148.015625 L 206.042969 139.679688 L 197.972656 140.730469 Z M 194.738281 149.070312 " fill-opacity="1" fill-rule="evenodd"/></g></g></g><g clip-path="url(#bc6f27a08a)"><g clip-path="url(#a13aec7acc)"><g clip-path="url(#7c0f9bd655)"><path fill="#ffffff" d="M 215.40625 146.375 L 223.480469 145.324219 L 226.710938 136.988281 L 218.640625 138.039062 Z M 215.40625 146.375 " fill-opacity="1" fill-rule="evenodd"/></g></g></g><g clip-path="url(#d1aff19181)"><g clip-path="url(#a3b9298a5b)"><g clip-path="url(#ab097579ed)"><path fill="#ff3131" d="M 223.628906 117.558594 L 141.257812 138.820312 L 143.480469 147.375 L 225.851562 126.113281 Z M 223.628906 117.558594 " fill-opacity="1" fill-rule="evenodd"/></g></g></g><g clip-path="url(#88433e6eba)"><g clip-path="url(#b319de41b6)"><g clip-path="url(#091a8c477c)"><path fill="#ffffff" d="M 224.675781 125.90625 L 216.796875 127.941406 L 210.675781 121.414062 L 218.554688 119.378906 Z M 224.675781 125.90625 " fill-opacity="1" fill-rule="evenodd"/></g></g></g><g clip-path="url(#c37171f520)"><g clip-path="url(#b2d3f6f0cf)"><g clip-path="url(#0c0cfd741f)"><path fill="#ffffff" d="M 204.496094 131.113281 L 196.617188 133.148438 L 190.492188 126.621094 L 198.375 124.585938 Z M 204.496094 131.113281 " fill-opacity="1" fill-rule="evenodd"/></g></g></g><g clip-path="url(#a5c7f38e4f)"><g clip-path="url(#dbcbe42f31)"><g clip-path="url(#b79f6d88ac)"><path fill="#ffffff" d="M 184.316406 136.324219 L 176.433594 138.359375 L 170.3125 131.832031 L 178.195312 129.796875 Z M 184.316406 136.324219 " fill-opacity="1" fill-rule="evenodd"/></g></g></g><g clip-path="url(#37538e0a89)"><g clip-path="url(#fe81799427)"><g clip-path="url(#1dd5a40033)"><path fill="#ffffff" d="M 164.132812 141.535156 L 156.253906 143.566406 L 150.132812 137.039062 L 158.011719 135.007812 Z M 164.132812 141.535156 " fill-opacity="1" fill-rule="evenodd"/></g></g></g><g clip-path="url(#2f5de82f13)"><g clip-path="url(#d6411c3a12)"><g clip-path="url(#bef1f8150a)"><path fill="#ffffff" d="M 148.886719 141.1875 C 148.945312 141.414062 148.957031 141.644531 148.925781 141.875 C 148.890625 142.109375 148.816406 142.324219 148.695312 142.527344 C 148.574219 142.730469 148.421875 142.902344 148.234375 143.042969 C 148.042969 143.183594 147.835938 143.285156 147.609375 143.34375 C 147.378906 143.402344 147.148438 143.414062 146.914062 143.382812 C 146.683594 143.351562 146.464844 143.273438 146.261719 143.15625 C 146.058594 143.039062 145.886719 142.882812 145.742188 142.699219 C 145.601562 142.511719 145.5 142.304688 145.441406 142.078125 C 145.316406 141.839844 145.25 141.589844 145.238281 141.320312 C 145.230469 141.054688 145.277344 140.796875 145.386719 140.550781 C 145.496094 140.308594 145.652344 140.097656 145.855469 139.921875 C 146.0625 139.75 146.292969 139.628906 146.554688 139.558594 C 146.816406 139.492188 147.078125 139.484375 147.339844 139.535156 C 147.605469 139.585938 147.84375 139.691406 148.058594 139.851562 C 148.277344 140.011719 148.445312 140.207031 148.570312 140.445312 C 148.691406 140.683594 148.757812 140.9375 148.765625 141.203125 " fill-opacity="1" fill-rule="evenodd"/></g></g></g><g clip-path="url(#4a8778d051)"><g clip-path="url(#d6d32d9fb3)"><g clip-path="url(#7d64addd90)"><path stroke-linecap="butt" transform="matrix(0.177941, -0.0231851, 0.0231841, 0.177932, 137.376689, 122.916275)" fill="none" stroke-linejoin="miter" d="M 50.44907 109.260033 C 50.60973 110.554275 50.508545 111.83635 50.169913 113.087486 C 49.806882 114.357396 49.242054 115.491244 48.42663 116.526577 C 47.611207 117.561911 46.645595 118.402045 45.50821 119.044169 C 44.349239 119.68348 43.132049 120.095669 41.837868 120.256337 C 40.522101 120.414192 39.240085 120.313002 37.967421 119.971541 C 36.716343 119.632894 35.563775 119.043639 34.525678 118.249765 C 33.48758 117.45589 32.650297 116.468647 31.983804 115.349983 C 31.34171 114.212545 30.92954 112.995299 30.76888 111.701057 C 30.249694 110.294238 30.062737 108.864848 30.192049 107.366902 C 30.340133 105.893355 30.784798 104.50236 31.566402 103.221131 C 32.345193 101.961489 33.360517 100.908296 34.60956 100.083139 C 35.877376 99.282383 37.238145 98.779134 38.735039 98.57902 C 40.22912 98.400493 41.681012 98.545772 43.090715 99.014857 C 44.522004 99.486754 45.762815 100.241182 46.834732 101.280953 C 47.928236 102.323536 48.715807 103.523837 49.234992 104.930657 C 49.732592 106.334663 49.916736 107.78564 49.768651 109.259187 " stroke="#ffffff" stroke-width="4" stroke-opacity="1" stroke-miterlimit="4"/></g></g></g><g clip-path="url(#da0a964e19)"><g clip-path="url(#02e2e6adb5)"><g clip-path="url(#43fc6838ae)"><path stroke-linecap="butt" transform="matrix(0.177941, -0.0231851, 0.0231841, 0.177932, 137.376689, 122.916275)" fill="none" stroke-linejoin="miter" d="M 15.452522 188.650324 L 489.650774 188.640527 " stroke="#cccccc" stroke-width="0.692" stroke-opacity="1" stroke-miterlimit="4"/></g></g></g><g clip-path="url(#c5b283aa1b)"><g clip-path="url(#78d5f5c639)"><g clip-path="url(#d6a5d35aa4)"><path stroke-linecap="butt" transform="matrix(0.177941, -0.0231851, 0.0231841, 0.177932, 137.376689, 122.916275)" fill="none" stroke-linejoin="miter" d="M 36.651757 370.334242 L 468.547682 370.322666 " stroke="#ffffff" stroke-width="4" stroke-opacity="1" stroke-miterlimit="4"/></g></g></g><g clip-path="url(#866b194e48)"><g clip-path="url(#51f1ca8715)"><g clip-path="url(#2ea99ccc3b)"><path stroke-linecap="butt" transform="matrix(0.177941, -0.0231851, 0.0231841, 0.177932, 137.376689, 122.916275)" fill="none" stroke-linejoin="miter" d="M 163.647365 435.706901 L 163.647049 371.009691 " stroke="#ffffff" stroke-width="4" stroke-opacity="1" stroke-miterlimit="4"/></g></g></g><g clip-path="url(#2b26f0ea6d)"><g clip-path="url(#0b50a79f1e)"><g clip-path="url(#2799aafbde)"><path stroke-linecap="butt" transform="matrix(0.177941, -0.0231851, 0.0231841, 0.177932, 137.376689, 122.916275)" fill="none" stroke-linejoin="miter" d="M 341.551014 435.705328 L 341.550697 371.008117 " stroke="#ffffff" stroke-width="4" stroke-opacity="1" stroke-miterlimit="4"/></g></g></g><g clip-path="url(#cea2248c41)"><g clip-path="url(#0bf84aab8b)"><g clip-path="url(#8cd1bfe0a0)"><path stroke-linecap="butt" transform="matrix(0.177941, -0.0231851, 0.0231841, 0.177932, 137.376689, 122.916275)" fill="none" stroke-linejoin="miter" d="M 36.654253 305.615444 L 468.547365 305.625455 " stroke="#ffffff" stroke-width="4" stroke-opacity="1" stroke-miterlimit="4"/></g></g></g><g clip-path="url(#9eb82177c1)"><g clip-path="url(#1a2c325521)"><g clip-path="url(#1c25457de2)"><path stroke-linecap="butt" transform="matrix(0.177941, -0.0231851, 0.0231841, 0.177932, 137.376689, 122.916275)" fill="none" stroke-linejoin="miter" d="M 36.656749 240.896646 L 468.549862 240.906657 " stroke="#ffffff" stroke-width="4" stroke-opacity="1" stroke-miterlimit="4"/></g></g></g></svg>