<svg xmlns="http://www.w3.org/2000/svg" xmlns:xlink="http://www.w3.org/1999/xlink" viewBox="0 0 254.73 127.4"><defs><style>.cls-1{fill:#f28021;}.cls-2{fill:#f7ac1c;}.cls-3{fill:#0084c7;}.cls-4{fill:#0ab5e3;}.cls-5{fill:#5c9e43;}.cls-6{fill:#8bc441;}.cls-7{fill:url(#linear-gradient);}.cls-8{fill:url(#linear-gradient-2);}.cls-9{fill:url(#linear-gradient-3);}</style><linearGradient id="linear-gradient" x1="149.74" y1="27.22" x2="105.84" y2="67.64" gradientUnits="userSpaceOnUse"><stop offset="0" stop-color="#f7e11c"/><stop offset="0.21" stop-color="#f5bc21"/><stop offset="0.4" stop-color="#f08121"/><stop offset="0.61" stop-color="#ef5325"/><stop offset="0.85" stop-color="#e92926"/><stop offset="0.96" stop-color="#c43d3f"/></linearGradient><linearGradient id="linear-gradient-2" x1="125.26" y1="27.2" x2="146.66" y2="27.95" gradientUnits="userSpaceOnUse"><stop offset="0.04" stop-color="#f7e11c"/><stop offset="0.21" stop-color="#f5bc21"/><stop offset="0.4" stop-color="#f08121"/><stop offset="0.61" stop-color="#ef5325"/><stop offset="0.85" stop-color="#e92926"/><stop offset="1" stop-color="#c43d3f"/></linearGradient><linearGradient id="linear-gradient-3" x1="95.88" y1="54.3" x2="136.05" y2="-18.16" gradientUnits="userSpaceOnUse"><stop offset="0" stop-color="#064654"/><stop offset="0.1" stop-color="#0a529d"/><stop offset="0.44" stop-color="#0ab5e3"/><stop offset="0.47" stop-color="#13b5e3"/><stop offset="1" stop-color="#bae0cd"/></linearGradient></defs><title>Asset 1</title><g id="Layer_2" data-name="Layer 2"><g id="Layer_1-2" data-name="Layer 1"><polygon class="cls-1" points="93.66 89.46 101.31 89.46 101.31 98.73 93.66 89.46"/><polygon class="cls-2" points="108.96 98.73 101.31 98.73 101.31 89.46 108.96 98.73"/><polygon class="cls-2" points="108.96 98.73 116.61 98.73 116.61 89.46 108.96 98.73"/><polygon class="cls-1" points="124.26 89.46 116.61 89.46 116.61 98.73 124.26 89.46"/><polygon class="cls-3" points="93.66 117.14 101.31 117.14 101.31 107.88 93.66 117.14"/><polygon class="cls-4" points="108.96 107.88 101.31 107.88 101.31 117.14 108.96 107.88"/><polygon class="cls-5" points="101.31 107.88 108.96 107.88 108.96 98.62 101.31 107.88"/><polygon class="cls-6" points="116.61 107.88 108.96 107.88 108.96 98.62 116.61 107.88"/><polygon class="cls-4" points="108.96 107.88 116.61 107.88 116.61 117.14 108.96 107.88"/><polygon class="cls-3" points="124.26 117.14 116.61 117.14 116.61 107.88 124.26 117.14"/><path class="cls-3" d="M24.74,113.18A14.28,14.28,0,0,1,14,117.51a13.94,13.94,0,0,1-10.26-4.17,11,11,0,0,1-3.1-5.72A51.61,51.61,0,0,1,0,98.17a51.73,51.73,0,0,1,.64-9.46A10.83,10.83,0,0,1,3.74,83,13.94,13.94,0,0,1,14,78.82c8.65,0,13.3,5.56,14.32,12.19H20.84c-.91-3.69-3.15-5.56-6.84-5.56a6.09,6.09,0,0,0-4.76,2c-1.39,1.76-1.81,3.15-1.81,10.69s.32,9,1.81,10.74a5.89,5.89,0,0,0,4.76,2,6.86,6.86,0,0,0,5.29-2.13A7.52,7.52,0,0,0,21,103.67v-1.44H14V96H28.37v5.56c0,5.55-1,8.81-3.63,11.59"/><path class="cls-3" d="M46.29,117.19v-2.4a8.46,8.46,0,0,1-6.84,2.66c-3.16,0-5.46-.79-7.11-2.45a8.9,8.9,0,0,1-2.3-6.26c0-4.43,3.05-8.06,9.51-8.06h6.57V99.29c0-3.05-1.49-4.38-5.18-4.38-2.67,0-3.9.64-5.34,2.29l-4.44-4.32c2.73-3,5.4-3.85,10.05-3.85,7.8,0,11.86,3.31,11.86,9.83v18.33Zm-.17-11.76h-5.5c-2.51,0-3.9,1.18-3.9,3.16s1.28,3.2,4,3.2c1.92,0,3.15-.16,4.38-1.33.75-.7,1-1.82,1-3.53Z"/><path class="cls-3" d="M63.81,117.19c-5.72,0-8.12-4-8.12-8V79.15h6.94V108.8c0,1.66.7,2.51,2.46,2.51h2.67v5.88Z"/><path class="cls-3" d="M85.67,117.19v-2.4a8.46,8.46,0,0,1-6.84,2.66c-3.16,0-5.45-.79-7.11-2.45a8.9,8.9,0,0,1-2.3-6.26c0-4.43,3-8.06,9.51-8.06H85.5V99.29c0-3.05-1.49-4.38-5.18-4.38-2.67,0-3.9.64-5.34,2.29l-4.43-4.32c2.72-3,5.39-3.85,10-3.85,7.8,0,11.86,3.31,11.86,9.83v18.33Zm-.17-11.76H80c-2.51,0-3.9,1.18-3.9,3.16s1.28,3.2,4,3.2c1.92,0,3.15-.16,4.38-1.33.75-.7,1-1.82,1-3.53Z"/><path class="cls-3" d="M198.54,117.19c-5.71,0-8.12-4-8.12-8V79.15h7V108.8c0,1.66.69,2.51,2.46,2.51h2.66v5.88Z"/><path class="cls-3" d="M221,117.19v-2.4a8.46,8.46,0,0,1-6.84,2.66c-3.16,0-5.45-.79-7.11-2.45a8.9,8.9,0,0,1-2.3-6.26c0-4.43,3.05-8.06,9.51-8.06h6.58V99.29c0-3.05-1.5-4.38-5.19-4.38-2.67,0-3.9.64-5.34,2.29l-4.43-4.32c2.72-3,5.39-3.85,10-3.85,7.8,0,11.86,3.31,11.86,9.83v18.33Zm-.16-11.76H215.3c-2.51,0-3.9,1.18-3.9,3.16s1.29,3.2,4,3.2c1.92,0,3.15-.16,4.38-1.33.75-.7,1-1.82,1-3.53Z"/><path class="cls-3" d="M139.27,121.68a9.75,9.75,0,0,1-2.08,3.58,8.06,8.06,0,0,1-6,2.14h-2.73v-6.26h1.6c2,0,2.78-.48,3.48-2.51l1.17-3.42-9.51-25.86h7.32l5.77,17.2,5.56-17.2h7.32Z"/><path class="cls-3" d="M242.81,121.68a10,10,0,0,1-2.08,3.58,8.07,8.07,0,0,1-6,2.14H232v-6.26h1.6c2,0,2.78-.48,3.47-2.51l1.18-3.42-9.51-25.86h7.32l5.77,17.2,5.56-17.2h7.32Z"/><path class="cls-3" d="M181.59,80.07a13.1,13.1,0,0,0-6.31-1.47H159.91v38.34h7.22V102.07h8.15a13.2,13.2,0,0,0,6.31-1.45,10.4,10.4,0,0,0,4.24-4.1,13.42,13.42,0,0,0,0-12.33A10.45,10.45,0,0,0,181.59,80.07Zm-2.3,12.77a4.13,4.13,0,0,1-1.55,1.68,4.37,4.37,0,0,1-2.28.59h-8.33V85.56h8.33a4.37,4.37,0,0,1,2.31.6,4,4,0,0,1,1.53,1.68,5.63,5.63,0,0,1,.54,2.52A5.36,5.36,0,0,1,179.29,92.84Z"/><path class="cls-7" d="M151.74,21.24a105.39,105.39,0,0,0-10.21-8.34l.2.22c2,1.43,5.15,7,1.71,18.92-.93,3.25-3.35,7.76-6.63,12.32-4.57,6.34-10.8,12.75-17.07,15.93A43.09,43.09,0,0,0,134,58c12-4,23.36-14.55,25.56-21.17C161,32.51,158,27.14,151.74,21.24Z"/><path class="cls-8" d="M141.73,13.12c-.15-.13-.29-.27-.45-.39s-.37-.27-.57-.4l-.1-.05h0a8.57,8.57,0,0,0-1.48-.75,9.86,9.86,0,0,0-1.7-.53,10.76,10.76,0,0,0-2.35-.19c-.4,0-.81,0-1.22.09a13.72,13.72,0,0,0-2.51.53h-.07a26.82,26.82,0,0,0-9,5.68l-.25.25c-.45.45-.89.93-1.32,1.42l-.39.46a34.47,34.47,0,0,0-3.39,5.05c4.47-6.71,12.58-9.51,18.58-7,7.2,3.05,7.93,15.76,1.32,27,3.28-4.56,5.7-9.07,6.63-12.32C146.88,20.07,143.69,14.55,141.73,13.12Z"/><path class="cls-9" d="M128.87,5.33C122.48,2,115.79-.09,110.55,0c-4,.2-8.62,2.62-11.38,10.44-2.35,6.69-3.54,16.8-1.24,28.25,2.18,10.88,7.47,22.76,8.3,24.49,2-13.61,5.75-29.38,10-37.55l.72-1.33a34.47,34.47,0,0,1,3.39-5.05l.39-.46c.43-.5.87-1,1.32-1.42l.25-.25a26.82,26.82,0,0,1,9-5.68h.07a13.72,13.72,0,0,1,2.51-.53c.41-.05.82-.08,1.22-.09a10.76,10.76,0,0,1,2.35.19,9.86,9.86,0,0,1,1.7.53,8.57,8.57,0,0,1,1.48.75C136.53,9.6,131.94,6.91,128.87,5.33Z"/></g></g></svg>