<svg xmlns="http://www.w3.org/2000/svg" xmlns:xlink="http://www.w3.org/1999/xlink" width="500" zoomAndPan="magnify" viewBox="0 0 375 374.999991" height="500" preserveAspectRatio="xMidYMid meet" version="1.0"><defs><g/></defs><g fill="#ff3131" fill-opacity="1"><g transform="translate(23.782217, 208.499986)"><g><path d="M 39.695312 -23.78125 C 39.695312 -27.683594 39.453125 -38.855469 36.753906 -41.496094 C 35.910156 -42.335938 33.871094 -42.699219 32.667969 -42.699219 C 29.605469 -42.699219 27.863281 -42.515625 27.863281 -38.914062 C 27.863281 -36.753906 28.042969 -34.648438 28.042969 -32.488281 C 28.042969 -31.226562 28.164062 -24.199219 26.484375 -24.199219 C 23.359375 -24.199219 19.457031 -42.757812 12.191406 -42.757812 C 10.871094 -42.757812 9.789062 -42.757812 8.46875 -42.277344 C 4.082031 -40.714844 3.964844 -28.707031 3.964844 -24.800781 C 3.964844 -20.71875 3.964844 -5.042969 6.785156 -2.34375 C 7.808594 -1.382812 10.269531 -1.140625 11.648438 -1.140625 C 14.652344 -1.140625 15.914062 -2.703125 15.914062 -5.644531 C 15.914062 -8.828125 15.671875 -12.011719 15.671875 -15.191406 C 15.671875 -16.035156 15.671875 -20.417969 16.753906 -20.417969 C 19.035156 -20.417969 25.402344 -3.0625 28.886719 -1.441406 C 29.664062 -1.082031 30.445312 -1.019531 31.289062 -1.019531 C 33.269531 -1.019531 35.070312 -1.199219 36.691406 -2.402344 C 39.632812 -4.5625 39.695312 -15.671875 39.695312 -19.15625 Z M 39.695312 -23.78125 "/></g></g></g><g fill="#ff3131" fill-opacity="1"><g transform="translate(63.772932, 208.499986)"><g><path d="M 37.59375 -35.671875 C 37.59375 -36.332031 37.414062 -38.855469 37.234375 -39.394531 C 35.609375 -43.839844 21.917969 -43.117188 18.257812 -43.117188 C 15.132812 -43.117188 6.484375 -42.9375 4.265625 -40.777344 C 3.363281 -39.875 3.121094 -37.050781 3.121094 -35.792969 C 3.121094 -30.085938 12.492188 -36.210938 13.691406 -29.785156 C 13.933594 -28.34375 13.992188 -26.84375 13.992188 -25.402344 C 13.992188 -22.339844 13.871094 -19.335938 13.871094 -16.273438 C 13.871094 -13.03125 13.8125 -3.0625 16.816406 -1.261719 C 17.835938 -0.660156 19.335938 -0.71875 20.539062 -0.71875 C 21.917969 -0.71875 23.601562 -0.660156 24.679688 -1.679688 C 26.601562 -3.542969 26.785156 -16.035156 26.785156 -19.035156 C 26.785156 -21.5 26.664062 -23.902344 26.664062 -26.363281 C 26.664062 -29.964844 27.382812 -33.269531 31.707031 -33.269531 C 32.609375 -33.269531 33.449219 -33.148438 34.351562 -33.148438 C 36.089844 -33.148438 37.59375 -33.628906 37.59375 -35.671875 Z M 37.59375 -35.671875 "/></g></g></g><g fill="#ff3131" fill-opacity="1"><g transform="translate(100.761313, 208.499986)"><g><path d="M 18.917969 -43.597656 C 16.453125 -43.597656 10.089844 -43.417969 8.046875 -42.21875 C 3.964844 -39.816406 3.964844 -27.445312 3.964844 -23.179688 C 3.964844 -18.316406 3.363281 -3.304688 8.949219 -1.261719 C 11.890625 -0.179688 15.792969 -0.179688 18.917969 -0.179688 C 31.046875 -0.179688 40.957031 -9.726562 40.957031 -21.980469 C 40.957031 -34.46875 31.289062 -43.597656 18.917969 -43.597656 Z M 29.246094 -22.878906 C 29.246094 -14.832031 27.144531 -9.1875 18.015625 -9.1875 C 15.671875 -9.1875 15.855469 -17.957031 15.855469 -19.636719 C 15.855469 -23.359375 16.035156 -27.144531 16.035156 -30.867188 C 16.035156 -31.46875 16.09375 -32.007812 16.273438 -32.609375 C 16.632812 -33.808594 17.113281 -34.589844 18.496094 -34.589844 C 26.121094 -34.589844 29.246094 -30.144531 29.246094 -22.878906 Z M 29.246094 -22.878906 "/></g></g></g><g fill="#ff3131" fill-opacity="1"><g transform="translate(139.250864, 208.499986)"><g/></g></g><g fill="#ff3131" fill-opacity="1"><g transform="translate(165.671002, 208.499986)"><g><path d="M 15.433594 -5.34375 C 15.433594 -8.648438 15.253906 -11.949219 15.253906 -15.191406 C 15.253906 -16.09375 15.191406 -20.539062 15.855469 -20.957031 C 18.074219 -20.957031 17.65625 -9.367188 25.761719 -9.367188 C 34.890625 -9.367188 33.269531 -21.019531 36.210938 -21.019531 C 36.332031 -20.175781 36.632812 -19.457031 36.632812 -18.554688 C 36.632812 -14.113281 36.390625 -9.667969 36.390625 -5.222656 C 36.390625 -2.523438 37.050781 -1.199219 39.933594 -1.199219 C 41.917969 -1.199219 43.476562 -0.960938 44.859375 -2.523438 C 48.042969 -6.125 48.28125 -14.710938 48.28125 -19.398438 C 48.28125 -20.71875 48.222656 -21.980469 48.222656 -23.300781 C 48.222656 -28.40625 48.101562 -35.492188 45.761719 -40.054688 C 44.800781 -41.976562 43.179688 -42.699219 41.074219 -42.699219 C 39.035156 -42.699219 36.570312 -42.878906 35.070312 -41.195312 C 32.488281 -38.195312 29.484375 -22.519531 25.523438 -22.519531 C 22.28125 -22.519531 19.335938 -40.414062 15.492188 -42.15625 C 14.59375 -42.578125 13.691406 -42.699219 12.730469 -42.699219 C 11.410156 -42.699219 10.027344 -42.578125 8.769531 -42.15625 C 7.386719 -41.738281 6.484375 -40.65625 5.886719 -39.394531 C 4.203125 -35.851562 3.902344 -26.542969 3.902344 -22.460938 C 3.902344 -18.316406 3.902344 -4.023438 7.746094 -1.800781 C 9.007812 -1.082031 10.390625 -1.140625 11.769531 -1.140625 C 14.773438 -1.140625 15.433594 -2.523438 15.433594 -5.34375 Z M 15.433594 -5.34375 "/></g></g></g><g fill="#ff3131" fill-opacity="1"><g transform="translate(214.068269, 208.499986)"><g><path d="M 22.097656 -43.65625 C 10.148438 -43.65625 1.261719 -33.628906 1.261719 -21.917969 C 1.261719 -9.429688 10.808594 -0.121094 23.242188 -0.121094 C 35.070312 -0.121094 44.320312 -10.328125 44.320312 -21.917969 C 44.320312 -34.589844 34.589844 -43.65625 22.097656 -43.65625 Z M 23.300781 -9.726562 C 16.753906 -9.726562 13.753906 -14.59375 13.753906 -20.65625 C 13.753906 -26.785156 15.191406 -34.050781 22.761719 -34.050781 C 30.507812 -34.050781 31.769531 -26.84375 31.769531 -20.65625 C 31.769531 -15.613281 29.066406 -9.726562 23.300781 -9.726562 Z M 23.300781 -9.726562 "/></g></g></g><g fill="#ff3131" fill-opacity="1"><g transform="translate(255.860395, 208.499986)"><g><path d="M 21.136719 -16.09375 C 16.996094 -18.015625 17.894531 -42.636719 10.148438 -42.636719 C 7.027344 -42.636719 3.363281 -42.578125 3.363281 -38.433594 C 3.363281 -33.089844 11.230469 -10.390625 13.992188 -5.164062 C 14.652344 -3.902344 15.554688 -2.703125 16.753906 -1.800781 C 17.957031 -0.902344 19.457031 -0.601562 20.898438 -0.601562 C 22.398438 -0.601562 24.082031 -0.71875 25.34375 -1.5625 C 30.027344 -4.625 38.914062 -32.007812 38.914062 -37.953125 C 38.914062 -42.699219 36.511719 -42.578125 32.609375 -42.578125 C 31.707031 -42.578125 30.566406 -42.457031 29.847656 -41.796875 C 29.183594 -41.136719 28.644531 -40.054688 28.34375 -39.214844 C 27.203125 -36.03125 23.058594 -16.933594 21.136719 -16.09375 Z M 21.136719 -16.09375 "/></g></g></g><g fill="#ff3131" fill-opacity="1"><g transform="translate(294.650188, 208.499986)"><g><path d="M 18.375 -28.34375 C 18.375 -31.289062 18.074219 -40.65625 15.375 -42.277344 C 13.992188 -43.117188 12.851562 -43.058594 11.289062 -43.058594 C 10.148438 -43.058594 9.128906 -42.878906 8.167969 -42.335938 C 4.863281 -40.476562 4.746094 -29.246094 4.746094 -25.761719 C 4.746094 -23.179688 4.863281 -20.65625 4.863281 -18.074219 C 4.863281 -14.953125 4.984375 -3.121094 7.808594 -1.5 C 9.066406 -0.78125 10.628906 -0.71875 12.070312 -0.71875 C 14.234375 -0.71875 15.972656 -1.679688 16.933594 -3.664062 C 18.195312 -6.246094 18.375 -14.832031 18.375 -17.894531 Z M 18.375 -28.34375 "/></g></g></g><g fill="#ff3131" fill-opacity="1"><g transform="translate(314.225008, 208.499986)"><g><path d="M 16.335938 -13.273438 C 16.335938 -14.113281 16.335938 -15.011719 16.515625 -15.855469 C 16.632812 -16.394531 16.816406 -16.933594 17.234375 -17.296875 C 18.375 -18.257812 21.320312 -18.074219 22.820312 -18.074219 C 24.742188 -18.074219 30.746094 -17.714844 31.886719 -19.398438 C 32.308594 -20.058594 32.429688 -21.019531 32.429688 -21.800781 C 32.429688 -22.761719 32.429688 -24.5 31.828125 -25.28125 C 30.867188 -26.542969 29.066406 -26.785156 27.5625 -26.785156 C 25.761719 -26.785156 23.960938 -26.601562 22.160156 -26.601562 C 19.996094 -26.601562 16.394531 -26.785156 16.394531 -29.726562 C 16.394531 -33.75 18.015625 -33.6875 21.4375 -33.6875 C 23.421875 -33.6875 25.402344 -33.390625 27.382812 -33.390625 C 29.183594 -33.390625 33.089844 -33.328125 33.089844 -35.910156 C 33.089844 -37.472656 32.847656 -39.273438 31.707031 -40.476562 C 29.785156 -42.515625 26.484375 -43.117188 23.78125 -43.117188 C 10.871094 -43.117188 4.023438 -42.996094 4.023438 -27.863281 C 4.023438 -25.460938 4.082031 -23.121094 4.082031 -20.71875 C 4.082031 -17.777344 4.144531 -14.832031 4.324219 -11.890625 C 4.625 -7.386719 5.824219 -3.785156 10.269531 -1.980469 C 14.234375 -0.359375 19.21875 -0.71875 23.480469 -0.71875 C 27.382812 -0.71875 33.027344 -1.621094 33.027344 -6.605469 C 33.027344 -9.429688 32.546875 -10.269531 29.605469 -10.269531 C 26.304688 -10.269531 22.941406 -10.089844 19.636719 -10.089844 C 17.476562 -10.089844 16.335938 -11.109375 16.335938 -13.273438 Z M 16.335938 -13.273438 "/></g></g></g></svg>